<svg xmlns="http://www.w3.org/2000/svg" viewBox="0 0 229.35 51.96"><defs><style>.cls-1,.cls-2,.cls-4{fill:#141414;}.cls-2{font-size:35.29px;}.cls-2,.cls-4{font-family:Raleway-ExtraBold, Raleway;font-weight:800;}.cls-3{letter-spacing:-0.01em;}.cls-4{font-size:18.49px;letter-spacing:0em;}.cls-5{letter-spacing:0em;}</style></defs><g id="Camada_2" data-name="Camada 2"><g id="Camada_1-2" data-name="Camada 1"><path class="cls-1" d="M7.32,28.72H19.24a2.65,2.65,0,0,1,2.51,2.77v.71a29,29,0,0,0,.86,7.62,10.9,10.9,0,0,0,2.5,4.66,10.08,10.08,0,0,0,4.51,2.59,22.37,22.37,0,0,0,6.77.87H60.74a.55.55,0,0,0,.52-.58V42.81a.56.56,0,0,0-.53-.59h-24c-1.71,0-5.48-.42-7.15-2.31-2-2-1.9-5.87-2-7.13V5.57A.56.56,0,0,0,27.11,5H22.28a.55.55,0,0,0-.53.58V22.18a1.55,1.55,0,0,1-1.47,1.61h-13a1.54,1.54,0,0,1-1.46-1.61s0-14.17,0-16.79A.39.39,0,0,0,5.49,5l-5,0A.55.55,0,0,0,0,5.57V47.36a.56.56,0,0,0,.53.58H5.32a.55.55,0,0,0,.53-.57c0-4,0-17,0-17A1.54,1.54,0,0,1,7.32,28.72Z"/><path class="cls-1" d="M39.72,17.78a6,6,0,0,0-4.87,2,9,9,0,0,0-1.66,5.81v6.83a4.62,4.62,0,0,0,.82,3,3.36,3.36,0,0,0,2.7.93H60.17c.79,0,.95-.63.95-1.16V31.26c0-.43-.12-1.17-.95-1.17H38.83v-4.5c0-1.56.59-2.33,1.81-2.33h14a6,6,0,0,0,4.87-2,8.94,8.94,0,0,0,1.66-5.76V12.4A8.44,8.44,0,0,0,59.53,7a6,6,0,0,0-5-2H35.05c-.79,0-.91.73-.91,1.17v3.94c0,.44.12,1.17.91,1.17H53.66a1.59,1.59,0,0,1,1.45.65l.08.11a2.86,2.86,0,0,1,.61,1.57V15.5a2,2,0,0,1-2.1,2.28Z"/><text class="cls-2" transform="translate(70.74 30.17)"><tspan class="cls-3">H</tspan><tspan x="26.04" y="0">enrique</tspan></text><text class="cls-4" transform="translate(71.99 47.84)">L<tspan class="cls-5" x="10.78" y="0">opes Lima</tspan></text></g></g></svg>