<svg width="92" height="92" viewBox="0 0 92 92" fill="none" xmlns="http://www.w3.org/2000/svg">
<circle cx="46" cy="46" r="46" fill="white"/>
<path d="M22.3205 48.7416H34.2405C34.94 48.7778 35.5968 49.0896 36.0671 49.6086C36.5374 50.1277 36.7831 50.8119 36.7505 51.5116V52.2216C36.6986 54.7885 36.9878 57.3509 37.6105 59.8416C38.0487 61.5766 38.9073 63.177 40.1105 64.5016C41.3614 65.7446 42.9165 66.6376 44.6205 67.0916C46.8194 67.7262 49.1026 68.0196 51.3905 67.9616H75.7405C75.8128 67.9578 75.8835 67.9397 75.9488 67.9085C76.0141 67.8772 76.0726 67.8334 76.1209 67.7795C76.1692 67.7256 76.2064 67.6628 76.2303 67.5945C76.2543 67.5262 76.2645 67.4538 76.2605 67.3816V62.8316C76.2645 62.758 76.254 62.6844 76.2296 62.6149C76.2051 62.5454 76.1672 62.4814 76.1179 62.4266C76.0687 62.3718 76.0091 62.3272 75.9426 62.2955C75.8762 62.2637 75.8041 62.2454 75.7305 62.2416H51.7305C50.0205 62.2416 46.2505 61.8216 44.5805 59.9316C42.5805 57.9316 42.6805 54.0616 42.5805 52.8016V25.5916C42.5847 25.4557 42.5393 25.323 42.4528 25.2181C42.3663 25.1132 42.2447 25.0434 42.1105 25.0216H37.2805C37.2074 25.0241 37.1355 25.0413 37.0691 25.0719C37.0026 25.1026 36.943 25.1462 36.8936 25.2002C36.8443 25.2543 36.8062 25.3176 36.7816 25.3865C36.757 25.4554 36.7465 25.5285 36.7505 25.6016V42.2016C36.7668 42.6094 36.6216 43.0073 36.3464 43.3087C36.0712 43.6101 35.6881 43.7909 35.2805 43.8116H22.2805C21.8737 43.7909 21.4916 43.6098 21.218 43.3081C20.9444 43.0063 20.8014 42.6085 20.8205 42.2016C20.8205 42.2016 20.8205 28.0316 20.8205 25.4116C20.8216 25.3178 20.7889 25.2267 20.7282 25.155C20.6676 25.0834 20.5832 25.036 20.4905 25.0216H15.4905C15.3517 25.0367 15.2239 25.104 15.1329 25.2098C15.0419 25.3157 14.9946 25.4521 15.0005 25.5916V67.3816C14.995 67.5285 15.0476 67.6716 15.1467 67.7801C15.2459 67.8886 15.3837 67.9538 15.5305 67.9616H20.3205C20.3927 67.959 20.4638 67.9422 20.5295 67.9122C20.5953 67.8821 20.6544 67.8394 20.7037 67.7865C20.7529 67.7335 20.7912 67.6714 20.8164 67.6036C20.8416 67.5359 20.8532 67.4638 20.8505 67.3916C20.8505 63.3916 20.8505 50.3916 20.8505 50.3916C20.8356 50.1861 20.8621 49.9796 20.9284 49.7845C20.9947 49.5894 21.0995 49.4096 21.2366 49.2558C21.3737 49.1019 21.5402 48.9771 21.7264 48.8888C21.9126 48.8005 22.1146 48.7504 22.3205 48.7416Z" fill="#141414"/>
<path d="M54.7205 37.8016C53.8101 37.7428 52.8983 37.8924 52.0544 38.2389C51.2105 38.5855 50.4568 39.1199 49.8505 39.8016C48.6441 41.4891 48.0577 43.5415 48.1905 45.6116V52.4416C48.1089 53.5063 48.3987 54.5664 49.0105 55.4416C49.3646 55.7854 49.7901 56.047 50.2568 56.2077C50.7234 56.3684 51.2198 56.4244 51.7105 56.3716H75.1705C75.9605 56.3716 76.1205 55.7416 76.1205 55.2116V51.2816C76.1205 50.8516 76.0005 50.1116 75.1705 50.1116H53.8305V45.6116C53.8305 44.0516 54.4205 43.2816 55.6405 43.2816H69.6405C70.5509 43.3404 71.4627 43.1908 72.3066 42.8443C73.1505 42.4977 73.9042 41.9633 74.5105 41.2816C75.7102 39.6099 76.2965 37.5754 76.1705 35.5216V32.4216C76.2596 30.4867 75.6806 28.5801 74.5305 27.0216C73.9105 26.3217 73.1356 25.7764 72.2675 25.4291C71.3994 25.0819 70.4621 24.9423 69.5305 25.0216H50.0505C49.2605 25.0216 49.1405 25.7516 49.1405 26.1916V30.1316C49.1405 30.5716 49.2605 31.3016 50.0505 31.3016H68.6605C68.938 31.2732 69.218 31.3184 69.4725 31.4325C69.727 31.5466 69.947 31.7256 70.1105 31.9516L70.1905 32.0616C70.5468 32.5118 70.7594 33.0589 70.8005 33.6316V35.5216C70.8426 35.8154 70.8188 36.1148 70.7308 36.3982C70.6428 36.6816 70.4928 36.9419 70.2918 37.1602C70.0907 37.3784 69.8436 37.5492 69.5684 37.6602C69.2932 37.7711 68.9967 37.8194 68.7005 37.8016H54.7205Z" fill="#141414"/>
</svg>
