<svg width="235" height="52" viewBox="0 0 235 52" fill="none" xmlns="http://www.w3.org/2000/svg">
<path d="M92.6443 4.22642V29H86.6097V18.8012H77.2226V29H71.188V4.22642H77.2226V13.9312H86.6097V4.22642H92.6443Z" fill="#141414"/>
<path d="M115.563 18.8365C115.563 19.4011 115.528 19.9893 115.457 20.601H101.8C101.894 21.8244 102.282 22.7654 102.965 23.4242C103.67 24.0594 104.529 24.377 105.541 24.377C107.047 24.377 108.094 23.7418 108.682 22.4714H115.104C114.775 23.7653 114.175 24.9299 113.305 25.9651C112.458 27.0002 111.387 27.8119 110.093 28.4001C108.799 28.9882 107.352 29.2823 105.753 29.2823C103.823 29.2823 102.106 28.8706 100.6 28.0472C99.0946 27.2237 97.9182 26.0474 97.0713 24.5182C96.2243 22.9889 95.8008 21.2009 95.8008 19.1541C95.8008 17.1073 96.2125 15.3192 97.036 13.79C97.8829 12.2608 99.0593 11.0844 100.565 10.261C102.071 9.43758 103.8 9.02586 105.753 9.02586C107.658 9.02586 109.352 9.42582 110.834 10.2257C112.317 11.0256 113.469 12.1667 114.293 13.6489C115.14 15.131 115.563 16.8602 115.563 18.8365ZM109.387 17.2484C109.387 16.2133 109.035 15.3898 108.329 14.7781C107.623 14.1664 106.741 13.8606 105.682 13.8606C104.67 13.8606 103.812 14.1547 103.106 14.7428C102.424 15.331 102 16.1662 101.835 17.2484H109.387Z" fill="#141414"/>
<path d="M130.745 9.09644C133.051 9.09644 134.886 9.8493 136.251 11.355C137.639 12.8372 138.333 14.884 138.333 17.4955V29H132.333V18.3071C132.333 16.9896 131.992 15.9662 131.31 15.2369C130.628 14.5076 129.71 14.1429 128.557 14.1429C127.405 14.1429 126.487 14.5076 125.805 15.2369C125.122 15.9662 124.781 16.9896 124.781 18.3071V29H118.747V9.30818H124.781V11.9196C125.393 11.0492 126.216 10.3669 127.252 9.87282C128.287 9.35524 129.451 9.09644 130.745 9.09644Z" fill="#141414"/>
<path d="M148.561 12.5902C149.267 11.5079 150.149 10.661 151.208 10.0493C152.266 9.41405 153.443 9.09644 154.737 9.09644V15.4839H153.078C151.572 15.4839 150.443 15.8133 149.69 16.4721C148.937 17.1073 148.561 18.2366 148.561 19.8599V29H142.526V9.30818H148.561V12.5902Z" fill="#141414"/>
<path d="M160.656 7.26136C159.597 7.26136 158.727 6.95552 158.044 6.34382C157.386 5.7086 157.056 4.93222 157.056 4.01468C157.056 3.07362 157.386 2.29724 158.044 1.68554C158.727 1.05032 159.597 0.732712 160.656 0.732712C161.691 0.732712 162.538 1.05032 163.197 1.68554C163.879 2.29724 164.22 3.07362 164.22 4.01468C164.22 4.93222 163.879 5.7086 163.197 6.34382C162.538 6.95552 161.691 7.26136 160.656 7.26136ZM163.656 9.30818V29H157.621V9.30818H163.656Z" fill="#141414"/>
<path d="M166.829 19.1894C166.829 17.2367 167.229 15.4957 168.029 13.9665C168.852 12.4372 169.946 11.2491 171.311 10.4022C172.699 9.53169 174.204 9.09644 175.828 9.09644C177.075 9.09644 178.192 9.31995 179.18 9.76695C180.168 10.1904 180.968 10.7904 181.58 11.5667V9.30818H187.615V38.3871H181.58V26.5297C180.898 27.3531 180.063 28.0119 179.074 28.5059C178.11 29 177.004 29.247 175.757 29.247C174.157 29.247 172.675 28.8236 171.311 27.9766C169.946 27.1296 168.852 25.9415 168.029 24.4123C167.229 22.8831 166.829 21.1421 166.829 19.1894ZM181.58 19.1541C181.58 18.0954 181.368 17.2131 180.945 16.5073C180.545 15.778 180.016 15.2369 179.357 14.884C178.698 14.5076 178.004 14.3194 177.275 14.3194C176.569 14.3194 175.887 14.5076 175.228 14.884C174.569 15.2369 174.028 15.778 173.605 16.5073C173.181 17.2367 172.969 18.1307 172.969 19.1894C172.969 20.2481 173.181 21.1421 173.605 21.8714C174.028 22.5772 174.569 23.1183 175.228 23.4948C175.887 23.8477 176.569 24.0241 177.275 24.0241C177.98 24.0241 178.663 23.8477 179.322 23.4948C180.004 23.1183 180.545 22.5655 180.945 21.8361C181.368 21.1068 181.58 20.2128 181.58 19.1541Z" fill="#141414"/>
<path d="M211.425 9.30818V29H205.391V26.318C204.779 27.1885 203.944 27.8943 202.885 28.4354C201.85 28.953 200.697 29.2117 199.427 29.2117C197.921 29.2117 196.592 28.8824 195.439 28.2236C194.286 27.5414 193.392 26.565 192.757 25.2946C192.122 24.0241 191.804 22.5302 191.804 20.8127V9.30818H197.803V20.0011C197.803 21.3185 198.144 22.342 198.827 23.0713C199.509 23.8006 200.426 24.1653 201.579 24.1653C202.756 24.1653 203.685 23.8006 204.367 23.0713C205.049 22.342 205.391 21.3185 205.391 20.0011V9.30818H211.425Z" fill="#141414"/>
<path d="M234.322 18.8365C234.322 19.4011 234.287 19.9893 234.216 20.601H220.559C220.653 21.8244 221.042 22.7654 221.724 23.4242C222.43 24.0594 223.288 24.377 224.3 24.377C225.806 24.377 226.853 23.7418 227.441 22.4714H233.864C233.534 23.7653 232.934 24.9299 232.064 25.9651C231.217 27.0002 230.146 27.8119 228.852 28.4001C227.558 28.9882 226.112 29.2823 224.512 29.2823C222.583 29.2823 220.865 28.8706 219.359 28.0472C217.854 27.2237 216.677 26.0474 215.83 24.5182C214.983 22.9889 214.56 21.2009 214.56 19.1541C214.56 17.1073 214.972 15.3192 215.795 13.79C216.642 12.2608 217.818 11.0844 219.324 10.261C220.83 9.43758 222.559 9.02586 224.512 9.02586C226.417 9.02586 228.111 9.42582 229.594 10.2257C231.076 11.0256 232.228 12.1667 233.052 13.6489C233.899 15.131 234.322 16.8602 234.322 18.8365ZM228.147 17.2484C228.147 16.2133 227.794 15.3898 227.088 14.7781C226.382 14.1664 225.5 13.8606 224.441 13.8606C223.43 13.8606 222.571 14.1547 221.865 14.7428C221.183 15.331 220.759 16.1662 220.595 17.2484H228.147Z" fill="#141414"/>
<path d="M74.3082 44.5593H78.4499V47H71.1464V34.02H74.3082V44.5593Z" fill="#141414"/>
<path d="M84.6545 47.1479C83.6437 47.1479 82.7315 46.9322 81.918 46.5008C81.1167 46.0693 80.4819 45.453 80.0135 44.6518C79.5574 43.8505 79.3294 42.9137 79.3294 41.8413C79.3294 40.7812 79.5636 39.8505 80.032 39.0493C80.5004 38.2357 81.1414 37.6132 81.9549 37.1818C82.7685 36.7504 83.6807 36.5347 84.6915 36.5347C85.7022 36.5347 86.6144 36.7504 87.428 37.1818C88.2415 37.6132 88.8825 38.2357 89.3509 39.0493C89.8194 39.8505 90.0536 40.7812 90.0536 41.8413C90.0536 42.9014 89.8132 43.8382 89.3325 44.6518C88.864 45.453 88.2169 46.0693 87.391 46.5008C86.5774 46.9322 85.6653 47.1479 84.6545 47.1479ZM84.6545 44.4114C85.2585 44.4114 85.77 44.1895 86.1891 43.7458C86.6206 43.302 86.8363 42.6672 86.8363 41.8413C86.8363 41.0154 86.6267 40.3806 86.2076 39.9368C85.8009 39.4931 85.2955 39.2712 84.6915 39.2712C84.0751 39.2712 83.5636 39.4931 83.1568 39.9368C82.75 40.3683 82.5466 41.0031 82.5466 41.8413C82.5466 42.6672 82.7438 43.302 83.1383 43.7458C83.5451 44.1895 84.0505 44.4114 84.6545 44.4114Z" fill="#141414"/>
<path d="M94.8927 38.1433C95.2009 37.6626 95.6262 37.2743 96.1685 36.9784C96.7109 36.6826 97.3457 36.5347 98.073 36.5347C98.9236 36.5347 99.694 36.7504 100.384 37.1818C101.075 37.6132 101.617 38.2296 102.011 39.0308C102.418 39.832 102.622 40.7627 102.622 41.8228C102.622 42.8829 102.418 43.8197 102.011 44.6333C101.617 45.4345 101.075 46.057 100.384 46.5008C99.694 46.9322 98.9236 47.1479 98.073 47.1479C97.3581 47.1479 96.7232 47 96.1685 46.7042C95.6262 46.4083 95.2009 46.0262 94.8927 45.5578V51.9183H91.7309V36.6826H94.8927V38.1433ZM99.4043 41.8228C99.4043 41.0339 99.1824 40.4176 98.7387 39.9738C98.3072 39.5177 97.771 39.2897 97.13 39.2897C96.5014 39.2897 95.9652 39.5177 95.5214 39.9738C95.09 40.4299 94.8743 41.0524 94.8743 41.8413C94.8743 42.6302 95.09 43.2527 95.5214 43.7088C95.9652 44.1649 96.5014 44.3929 97.13 44.3929C97.7587 44.3929 98.2949 44.1649 98.7387 43.7088C99.1824 43.2404 99.4043 42.6117 99.4043 41.8228Z" fill="#141414"/>
<path d="M114.006 41.6749C114.006 41.9707 113.988 42.2789 113.951 42.5994H106.795C106.844 43.2404 107.048 43.7334 107.405 44.0786C107.775 44.4114 108.225 44.5778 108.755 44.5778C109.544 44.5778 110.092 44.245 110.401 43.5794H113.766C113.593 44.2573 113.279 44.8675 112.823 45.4099C112.379 45.9522 111.818 46.3775 111.14 46.6857C110.462 46.9938 109.704 47.1479 108.866 47.1479C107.855 47.1479 106.955 46.9322 106.166 46.5008C105.377 46.0693 104.761 45.453 104.317 44.6518C103.874 43.8505 103.652 42.9137 103.652 41.8413C103.652 40.7689 103.867 39.832 104.299 39.0308C104.743 38.2296 105.359 37.6132 106.148 37.1818C106.937 36.7504 107.843 36.5347 108.866 36.5347C109.864 36.5347 110.752 36.7442 111.528 37.1633C112.305 37.5824 112.909 38.1803 113.34 38.9569C113.784 39.7334 114.006 40.6394 114.006 41.6749ZM110.77 40.8428C110.77 40.3005 110.585 39.869 110.216 39.5485C109.846 39.228 109.384 39.0678 108.829 39.0678C108.299 39.0678 107.849 39.2219 107.479 39.53C107.122 39.8382 106.9 40.2758 106.813 40.8428H110.77Z" fill="#141414"/>
<path d="M119.871 47.1479C118.971 47.1479 118.17 46.9938 117.468 46.6857C116.765 46.3775 116.21 45.9584 115.803 45.4284C115.397 44.886 115.169 44.282 115.119 43.6163H118.244C118.281 43.9738 118.448 44.2635 118.743 44.4854C119.039 44.7072 119.403 44.8182 119.834 44.8182C120.229 44.8182 120.531 44.7442 120.74 44.5963C120.962 44.4361 121.073 44.2327 121.073 43.9861C121.073 43.6903 120.919 43.4746 120.611 43.339C120.303 43.1911 119.803 43.0308 119.113 42.8582C118.374 42.6857 117.757 42.5069 117.264 42.322C116.771 42.1248 116.346 41.8228 115.988 41.416C115.631 40.9969 115.452 40.4361 115.452 39.7334C115.452 39.1418 115.612 38.6055 115.933 38.1248C116.266 37.6317 116.746 37.2434 117.375 36.9599C118.016 36.6764 118.774 36.5347 119.649 36.5347C120.944 36.5347 121.961 36.8552 122.7 37.4961C123.452 38.1371 123.884 38.9877 123.995 40.0478H121.073C121.024 39.6903 120.864 39.4068 120.592 39.1972C120.334 38.9877 119.988 38.8829 119.557 38.8829C119.187 38.8829 118.904 38.9569 118.706 39.1048C118.509 39.2404 118.411 39.4314 118.411 39.678C118.411 39.9738 118.565 40.1957 118.873 40.3436C119.193 40.4915 119.686 40.6394 120.352 40.7874C121.116 40.9846 121.739 41.1818 122.22 41.379C122.7 41.5639 123.119 41.8721 123.477 42.3035C123.847 42.7226 124.038 43.2897 124.05 44.0046C124.05 44.6086 123.877 45.151 123.532 45.6317C123.199 46.1002 122.713 46.47 122.072 46.7411C121.443 47.0123 120.709 47.1479 119.871 47.1479Z" fill="#141414"/>
<path d="M133.064 44.5593H137.206V47H129.903V34.02H133.064V44.5593Z" fill="#141414"/>
<path d="M140.304 35.6102C139.75 35.6102 139.294 35.4499 138.936 35.1294C138.591 34.7966 138.418 34.3898 138.418 33.9091C138.418 33.416 138.591 33.0092 138.936 32.6887C139.294 32.3559 139.75 32.1895 140.304 32.1895C140.847 32.1895 141.291 32.3559 141.636 32.6887C141.993 33.0092 142.172 33.416 142.172 33.9091C142.172 34.3898 141.993 34.7966 141.636 35.1294C141.291 35.4499 140.847 35.6102 140.304 35.6102ZM141.876 36.6826V47H138.714V36.6826H141.876Z" fill="#141414"/>
<path d="M157.332 36.5716C158.614 36.5716 159.631 36.9599 160.383 37.7365C161.147 38.5131 161.53 39.5917 161.53 40.9723V47H158.386V41.3975C158.386 40.7319 158.208 40.2203 157.85 39.8629C157.505 39.4931 157.024 39.3082 156.408 39.3082C155.791 39.3082 155.305 39.4931 154.947 39.8629C154.602 40.2203 154.429 40.7319 154.429 41.3975V47H151.286V41.3975C151.286 40.7319 151.107 40.2203 150.75 39.8629C150.405 39.4931 149.924 39.3082 149.308 39.3082C148.691 39.3082 148.204 39.4931 147.847 39.8629C147.502 40.2203 147.329 40.7319 147.329 41.3975V47H144.167V36.6826H147.329V37.9769C147.65 37.5455 148.069 37.2065 148.587 36.9599C149.104 36.7011 149.69 36.5716 150.343 36.5716C151.12 36.5716 151.81 36.7381 152.414 37.0709C153.03 37.4037 153.511 37.8783 153.856 38.4946C154.214 37.9276 154.701 37.4653 155.317 37.1079C155.933 36.7504 156.605 36.5716 157.332 36.5716Z" fill="#141414"/>
<path d="M163.112 41.8228C163.112 40.7627 163.309 39.832 163.704 39.0308C164.111 38.2296 164.659 37.6132 165.349 37.1818C166.04 36.7504 166.81 36.5347 167.661 36.5347C168.388 36.5347 169.023 36.6826 169.565 36.9784C170.12 37.2743 170.545 37.6626 170.841 38.1433V36.6826H174.003V47H170.841V45.5393C170.533 46.02 170.101 46.4083 169.547 46.7042C169.004 47 168.37 47.1479 167.642 47.1479C166.804 47.1479 166.04 46.9322 165.349 46.5008C164.659 46.057 164.111 45.4345 163.704 44.6333C163.309 43.8197 163.112 42.8829 163.112 41.8228ZM170.841 41.8413C170.841 41.0524 170.619 40.4299 170.175 39.9738C169.744 39.5177 169.214 39.2897 168.585 39.2897C167.957 39.2897 167.42 39.5177 166.977 39.9738C166.545 40.4176 166.329 41.0339 166.329 41.8228C166.329 42.6117 166.545 43.2404 166.977 43.7088C167.42 44.1649 167.957 44.3929 168.585 44.3929C169.214 44.3929 169.744 44.1649 170.175 43.7088C170.619 43.2527 170.841 42.6302 170.841 41.8413Z" fill="#141414"/>
<path d="M7.32 27.72H19.24C19.9395 27.7562 20.5963 28.068 21.0666 28.587C21.537 29.1061 21.7827 29.7903 21.75 30.49V31.2C21.6981 33.7669 21.9873 36.3293 22.61 38.82C23.0482 40.555 23.9068 42.1554 25.11 43.48C26.3609 44.723 27.916 45.616 29.62 46.07C31.8189 46.7046 34.1021 46.998 36.39 46.94H60.74C60.8123 46.9362 60.8831 46.9181 60.9483 46.8869C61.0136 46.8556 61.0721 46.8118 61.1204 46.7579C61.1687 46.704 61.2059 46.6412 61.2298 46.5729C61.2538 46.5046 61.2641 46.4323 61.26 46.36V41.81C61.264 41.7364 61.2535 41.6628 61.2291 41.5933C61.2046 41.5238 61.1667 41.4598 61.1174 41.405C61.0682 41.3502 61.0086 41.3057 60.9422 41.2739C60.8757 41.2422 60.8036 41.2238 60.73 41.22H36.73C35.02 41.22 31.25 40.8 29.58 38.91C27.58 36.91 27.68 33.04 27.58 31.78V4.57C27.5842 4.43414 27.5388 4.30138 27.4523 4.19651C27.3659 4.09163 27.2442 4.02179 27.11 4H22.28C22.2069 4.00255 22.135 4.01967 22.0686 4.05034C22.0021 4.08102 21.9425 4.12464 21.8932 4.17866C21.8438 4.23267 21.8057 4.29599 21.7811 4.3649C21.7565 4.43382 21.746 4.50695 21.75 4.58V21.18C21.7663 21.5879 21.6211 21.9857 21.3459 22.2871C21.0707 22.5886 20.6877 22.7693 20.28 22.79H7.28C6.87319 22.7693 6.49116 22.5882 6.21753 22.2865C5.9439 21.9848 5.80096 21.5869 5.82 21.18C5.82 21.18 5.82 7.01 5.82 4.39C5.82112 4.29617 5.78837 4.20508 5.72775 4.13345C5.66714 4.06181 5.58273 4.01443 5.49 4H0.490003C0.351248 4.01511 0.223425 4.0824 0.132438 4.18824C0.0414514 4.29408 -0.00589194 4.43055 2.89071e-06 4.57V46.36C-0.00545244 46.5069 0.0470642 46.65 0.14622 46.7585C0.245375 46.8671 0.383218 46.9322 0.530003 46.94H5.32C5.39225 46.9374 5.46327 46.9206 5.52902 46.8906C5.59476 46.8605 5.65394 46.8178 5.70316 46.7649C5.75239 46.7119 5.79069 46.6498 5.81589 46.5821C5.84109 46.5143 5.85268 46.4422 5.85 46.37C5.85 42.37 5.85 29.37 5.85 29.37C5.83509 29.1645 5.86159 28.958 5.92791 28.7629C5.99423 28.5678 6.09903 28.388 6.23611 28.2342C6.37319 28.0803 6.53975 27.9555 6.72593 27.8672C6.91211 27.7789 7.11413 27.7288 7.32 27.72Z" fill="#141414"/>
<path d="M39.72 16.78C38.8096 16.7212 37.8978 16.8708 37.0539 17.2173C36.21 17.5639 35.4563 18.0983 34.85 18.78C33.6436 20.4675 33.0572 22.5199 33.19 24.59V31.42C33.1084 32.4847 33.3982 33.5448 34.01 34.42C34.3641 34.7638 34.7896 35.0254 35.2563 35.1861C35.7229 35.3469 36.2193 35.4028 36.71 35.35H60.17C60.96 35.35 61.12 34.72 61.12 34.19V30.26C61.12 29.83 61 29.09 60.17 29.09H38.83V24.59C38.83 23.03 39.42 22.26 40.64 22.26H54.64C55.5504 22.3188 56.4622 22.1692 57.3061 21.8227C58.15 21.4761 58.9037 20.9417 59.51 20.26C60.7097 18.5883 61.296 16.5538 61.17 14.5V11.4C61.2592 9.46515 60.6801 7.5585 59.53 6.00001C58.91 5.30012 58.1351 4.7548 57.267 4.40755C56.3989 4.06031 55.4616 3.92075 54.53 4.00001H35.05C34.26 4.00001 34.14 4.73001 34.14 5.17001V9.11001C34.14 9.55001 34.26 10.28 35.05 10.28H53.66C53.9375 10.2517 54.2175 10.2968 54.472 10.4109C54.7265 10.525 54.9466 10.704 55.11 10.93L55.19 11.04C55.5463 11.4902 55.7589 12.0373 55.8 12.61V14.5C55.8421 14.7938 55.8183 15.0932 55.7303 15.3766C55.6423 15.66 55.4923 15.9203 55.2913 16.1386C55.0903 16.3569 54.8432 16.5277 54.5679 16.6386C54.2927 16.7495 53.9962 16.7979 53.7 16.78H39.72Z" fill="#141414"/>
</svg>
